<svg viewBox="0 0 73 72" fill="none" xmlns="http://www.w3.org/2000/svg"><path fill-rule="evenodd" clip-rule="evenodd" d="M57.498 36c-.044 6.123-.892 11.89-2.359 16.993-5.546-.93-11.893-1.467-18.639-1.492V36h20.998ZM36.5 52.5c6.652.026 12.899.553 18.352 1.46-1.023 3.32-2.311 6.343-3.81 8.976-1.108 1.943-2.32 3.66-3.617 5.127A34.421 34.421 0 0 1 36.5 69.996V52.501Zm-1-16.5v15.5c-6.745.026-13.093.563-18.639 1.493-1.467-5.103-2.315-10.87-2.36-16.993h21Zm0 16.5c-6.652.026-12.899.553-18.352 1.459 1.023 3.322 2.311 6.344 3.811 8.977 1.107 1.943 2.32 3.66 3.616 5.127A34.421 34.421 0 0 0 35.5 69.996V52.501ZM13.502 36c.043 6.165.891 11.99 2.368 17.165-2.903.52-5.572 1.15-7.946 1.871l-.3.092A34.333 34.333 0 0 1 1.504 36h11.998Zm2.653 18.13c-2.9.516-5.56 1.14-7.917 1.856a34.617 34.617 0 0 0 14.439 11.347c-2.695-3.482-4.932-7.993-6.522-13.203Zm47.607 1.856c-2.358-.715-5.017-1.34-7.917-1.856-1.59 5.21-3.827 9.721-6.521 13.203a34.617 34.617 0 0 0 14.438-11.347Zm.314-.95.3.093A34.333 34.333 0 0 0 70.496 36H58.499c-.043 6.165-.891 11.99-2.368 17.165 2.903.52 5.572 1.15 7.946 1.871ZM14.502 35H35.5V20.5c-6.853-.027-13.295-.58-18.904-1.538-1.304 4.863-2.053 10.294-2.094 16.038Zm1.105-16.212C14.293 23.72 13.543 29.21 13.502 35H1.504A34.329 34.329 0 0 1 7.07 16.696c.28.09.565.18.854.268 2.302.7 4.882 1.313 7.683 1.824Zm.267-.968c-2.8-.508-5.372-1.118-7.66-1.813a53.36 53.36 0 0 1-.563-.175A34.624 34.624 0 0 1 22.677 3.667c-2.858 3.692-5.2 8.54-6.803 14.153Zm.99.173c1.065-3.697 2.453-7.046 4.095-9.929 1.107-1.943 2.32-3.66 3.616-5.127A34.422 34.422 0 0 1 35.5 1.004v18.495c-6.767-.025-13.116-.57-18.635-1.506ZM36.5 19.5V1.004c3.825.054 7.499.73 10.925 1.933 1.297 1.467 2.509 3.184 3.616 5.127 1.642 2.883 3.03 6.232 4.094 9.93-5.52.935-11.868 1.48-18.635 1.505Zm0 1c6.853-.026 13.295-.58 18.904-1.537 1.304 4.863 2.053 10.294 2.094 16.038H36.5V20.499Zm19.893-1.712c1.314 4.934 2.064 10.424 2.105 16.213h11.999a34.33 34.33 0 0 0-5.567-18.304c-.28.09-.565.18-.854.268-2.302.699-4.882 1.312-7.683 1.823Zm-.267-.967c2.8-.508 5.372-1.118 7.66-1.813.189-.058.377-.116.563-.175A34.624 34.624 0 0 0 49.324 3.667c2.857 3.692 5.199 8.54 6.802 14.153Z" fill="#888888"/></svg>