<svg viewBox="0 0 73 72" fill="none" xmlns="http://www.w3.org/2000/svg"><path fill-rule="evenodd" clip-rule="evenodd" d="M26.035 17.678s6.702.37 10.607-3.536c3.905-3.905 3.536-10.606 3.536-10.606s-6.702-.37-10.607 3.535c-3.905 3.905-3.536 10.607-3.536 10.607ZM26.5 72c14.36 0 26-11.64 26-26s-11.64-26-26-26S.5 31.64.5 46s11.64 26 26 26Z" fill="#888888"/><path fill-rule="evenodd" clip-rule="evenodd" d="M12.5 2h58v53H53.022c-.114.336-.234.67-.36 1H71.5V1h-60v21.353a27.81 27.81 0 0 1 1-.607V2Z" fill="#888888"/></svg>