<svg viewBox="0 0 73 72" fill="none" xmlns="http://www.w3.org/2000/svg"><rect x="9" y="26.5" width="7" height="24" rx="3.5" stroke="#888888"/><path fill-rule="evenodd" clip-rule="evenodd" d="M18.5 26h36v27a4 4 0 0 1-4 4h-3v10a4 4 0 0 1-8 0V57h-6v10a4 4 0 0 1-8 0V57h-3a4 4 0 0 1-4-4V26Z" fill="#888888"/><rect x="57" y="26.5" width="7" height="24" rx="3.5" stroke="#888888"/><mask id="a" fill="#888888"><path fill-rule="evenodd" clip-rule="evenodd" d="M47.5 2.732a2 2 0 1 1 3.464 2l-2.687 4.655A17.959 17.959 0 0 1 54.5 23v1h-36v-1a17.963 17.963 0 0 1 6.535-13.877L22.5 4.732a2 2 0 1 1 3.464-2l2.422 4.196A17.925 17.925 0 0 1 36.5 5c3.062 0 5.946.765 8.47 2.113l2.53-4.381Z"/></mask><path d="m50.232 2-.5.866.5-.866Zm-2.732.732.866.5-.866-.5Zm3.464 2-.866-.5.866.5Zm-2.687 4.655-.866-.5-.413.715.624.54.655-.755ZM54.5 24v1h1v-1h-1Zm-36 0h-1v1h1v-1Zm6.535-14.877.637.77.651-.538-.422-.732-.866.5ZM22.5 4.732l.866-.5-.866.5ZM23.232 2l-.5-.866.5.866Zm2.732.732.866-.5-.866.5Zm2.422 4.196-.866.5.474.82.844-.428-.452-.892Zm16.584.185-.47.882.853.456.483-.838-.866-.5Zm5.762-5.98a3 3 0 0 0-4.098 1.099l1.732 1a1 1 0 0 1 1.366-.366l1-1.732Zm1.098 4.099a3 3 0 0 0-1.098-4.098l-1 1.732a1 1 0 0 1 .366 1.366l1.732 1Zm-2.687 4.655 2.687-4.655-1.732-1-2.687 4.655 1.732 1ZM55.5 23c0-5.74-2.547-10.887-6.569-14.37l-1.309 1.513A16.959 16.959 0 0 1 53.5 23h2Zm0 1v-1h-2v1h2Zm-37 1h36v-2h-36v2Zm-1-2v1h2v-1h-2Zm6.898-14.648C20.186 11.836 17.5 17.105 17.5 23h2c0-5.274 2.4-9.987 6.172-13.106l-1.274-1.542Zm-2.764-3.12 2.535 4.391 1.732-1-2.535-4.391-1.732 1Zm1.098-4.098a3 3 0 0 0-1.098 4.098l1.732-1a1 1 0 0 1 .366-1.366l-1-1.732Zm4.098 1.098a3 3 0 0 0-4.098-1.098l1 1.732a1 1 0 0 1 1.366.366l1.732-1Zm2.422 4.196L26.83 2.232l-1.732 1 2.422 4.196 1.732-1ZM36.5 4c-3.08 0-5.99.733-8.565 2.036l.903 1.784A16.924 16.924 0 0 1 36.5 6V4Zm8.942 2.231A18.92 18.92 0 0 0 36.5 4v2c2.894 0 5.616.722 8 1.995l.942-1.764Zm1.192-3.999-2.53 4.381 1.732 1 2.53-4.381-1.732-1Z" fill="#888888" mask="url(#a)"/><rect x="43" y="13.5" width="4" height="4" rx="2" stroke="#888888"/><rect x="26" y="13.5" width="4" height="4" rx="2" stroke="#888888"/></svg>